<svg width="1335" height="384" viewBox="0 0 1335 384" fill="none" xmlns="http://www.w3.org/2000/svg">
<path d="M173.58 155.262H57.86L0 255.482L57.86 355.702H173.58L231.45 255.482L173.58 155.262Z" fill="url(#paint0_linear_134_1007)"/>
<path d="M369.1 25.8711H253.38L195.52 126.091L253.38 226.321H369.1L426.97 126.091L369.1 25.8711Z" fill="url(#paint1_linear_134_1007)"/>
<path d="M350.06 245.828H273.15L234.69 312.428L273.15 379.038H350.06L388.51 312.428L350.06 245.828Z" fill="url(#paint2_linear_134_1007)"/>
<path d="M155.62 0H78.71L40.25 66.6L78.71 133.21H155.62L194.07 66.6L155.62 0Z" fill="#C10000"/>
<path d="M482.15 164.779L505.76 27.3789H538.65L566.49 111.919L594.12 27.3889H626.8L650.61 164.789H614.7L606.43 106.479C606.03 103.789 605.65 101.129 605.32 98.5089C604.98 95.8889 604.61 93.2289 604.21 90.5389C603.67 93.0989 603.03 95.6489 602.29 98.2089C601.55 100.769 600.78 103.249 599.97 105.679L580.8 163.789H551.95L532.78 105.679C531.97 103.259 531.2 100.839 530.46 98.4189C529.72 95.9989 529.01 93.5089 528.34 90.9489C528.07 93.6389 527.77 96.2589 527.43 98.8189C527.09 101.379 526.72 103.929 526.32 106.489L518.05 164.799H482.15V164.779Z" fill="url(#paint3_linear_134_1007)"/>
<path d="M675.831 203.12L693.38 161.16L653.23 65.9297H689.75L711.54 117.58L733.13 65.9297H769.651L712.35 203.13H675.831V203.12Z" fill="url(#paint4_linear_134_1007)"/>
<path d="M523.711 381.541V269.361H482.351V244.141H592.911V269.361H550.341V381.541H523.711Z" fill="url(#paint5_linear_134_1007)"/>
<path d="M694.8 356.321V381.541H608.65V244.141H694.8V269.161H635.08V300.031H683.3V325.251H635.08V356.321H694.8Z" fill="url(#paint6_linear_134_1007)"/>
<path d="M706.9 381.541L755.73 244.141H786.6L833.81 381.541H807.18L797.9 353.901H743.22L733.54 381.541H706.9ZM751.89 329.281H789.62L771.06 273.801L751.89 329.281Z" fill="url(#paint7_linear_134_1007)"/>
<path d="M904.62 383.958C890.5 383.958 878.22 380.898 867.8 374.778C857.38 368.658 849.3 360.248 843.59 349.558C837.87 338.868 835.021 326.658 835.021 312.938C835.021 299.218 838.01 287.008 844 276.318C849.98 265.628 858.22 257.218 868.72 251.098C879.21 244.978 891.18 241.918 904.63 241.918C920.64 241.918 933.75 245.348 943.97 252.208C954.19 259.068 962.19 268.618 967.98 280.858L943.37 289.738C938.39 281.668 932.741 275.948 926.421 272.588C920.101 269.228 912.83 267.548 904.63 267.548C896.42 267.548 889.13 269.468 882.74 273.298C876.35 277.128 871.31 282.448 867.61 289.238C863.91 296.028 862.06 303.938 862.06 312.948C862.06 321.958 863.91 329.868 867.61 336.658C871.31 343.448 876.35 348.768 882.74 352.598C889.13 356.428 896.42 358.348 904.63 358.348C912.83 358.348 920.101 356.668 926.421 353.308C932.741 349.948 938.39 344.228 943.37 336.158L967.98 345.038C962.2 357.278 954.19 366.828 943.97 373.688C933.74 380.528 920.63 383.958 904.62 383.958Z" fill="url(#paint8_linear_134_1007)"/>
<path d="M985.131 381.541V244.141H1011.56V301.641H1069.26V244.141H1095.69V381.541H1069.26V326.861H1011.56V381.541H985.131Z" fill="url(#paint9_linear_134_1007)"/>
<path d="M1209.48 356.321V381.541H1123.33V244.141H1209.48V269.161H1149.76V300.031H1197.98V325.251H1149.76V356.321H1209.48Z" fill="url(#paint10_linear_134_1007)"/>
<path d="M1232.48 381.541V244.141H1283.12C1292.8 244.141 1301.41 246.091 1308.94 249.991C1316.47 253.891 1322.36 259.371 1326.59 266.431C1330.82 273.491 1332.95 281.661 1332.95 290.941C1332.95 300.491 1330.7 308.831 1326.19 315.961C1321.68 323.091 1315.6 328.541 1307.93 332.301L1334.36 381.531H1305.51L1281.9 337.551H1258.9V381.531H1232.48V381.541ZM1280.49 269.361H1258.9V312.331H1280.49C1288.29 312.331 1294.48 310.481 1299.05 306.781C1303.62 303.081 1305.91 297.801 1305.91 290.941C1305.91 283.811 1303.62 278.431 1299.05 274.801C1294.48 271.181 1288.29 269.361 1280.49 269.361Z" fill="url(#paint11_linear_134_1007)"/>
<path d="M482.15 164.779L505.76 27.3789H538.65L566.49 111.919L594.12 27.3889H626.8L650.61 164.789H614.7L606.43 106.479C606.03 103.789 605.65 101.129 605.32 98.5089C604.98 95.8889 604.61 93.2289 604.21 90.5389C603.67 93.0989 603.03 95.6489 602.29 98.2089C601.55 100.769 600.78 103.249 599.97 105.679L580.8 163.789H551.95L532.78 105.679C531.97 103.259 531.2 100.839 530.46 98.4189C529.72 95.9989 529.01 93.5089 528.34 90.9489C528.07 93.6389 527.77 96.2589 527.43 98.8189C527.09 101.379 526.72 103.929 526.32 106.489L518.05 164.799H482.15V164.779Z" fill="#C10000"/>
<path d="M675.831 203.12L693.38 161.16L653.23 65.9297H689.75L711.54 117.58L733.13 65.9297H769.651L712.35 203.13H675.831V203.12Z" fill="#C10000"/>
<defs>
<linearGradient id="paint0_linear_134_1007" x1="-57.7789" y1="392.456" x2="361.936" y2="61.1021" gradientUnits="userSpaceOnUse">
<stop stop-color="#012DAC"/>
<stop offset="1" stop-color="#011A60"/>
</linearGradient>
<linearGradient id="paint1_linear_134_1007" x1="-45.6339" y1="407.839" x2="374.081" y2="76.4855" gradientUnits="userSpaceOnUse">
<stop stop-color="#012DAC"/>
<stop offset="1" stop-color="#011A60"/>
</linearGradient>
<linearGradient id="paint2_linear_134_1007" x1="45.1314" y1="522.805" x2="464.846" y2="191.451" gradientUnits="userSpaceOnUse">
<stop stop-color="#012DAC"/>
<stop offset="1" stop-color="#011A60"/>
</linearGradient>
<linearGradient id="paint3_linear_134_1007" x1="389.144" y1="134.119" x2="1233.67" y2="-35.8056" gradientUnits="userSpaceOnUse">
<stop stop-color="#012DAC"/>
<stop offset="1" stop-color="#011A60"/>
</linearGradient>
<linearGradient id="paint4_linear_134_1007" x1="400.646" y1="191.289" x2="1245.17" y2="21.3637" gradientUnits="userSpaceOnUse">
<stop stop-color="#012DAC"/>
<stop offset="1" stop-color="#011A60"/>
</linearGradient>
<linearGradient id="paint5_linear_134_1007" x1="428.654" y1="330.486" x2="1273.18" y2="160.561" gradientUnits="userSpaceOnUse">
<stop stop-color="#012DAC"/>
<stop offset="1" stop-color="#011A60"/>
</linearGradient>
<linearGradient id="paint6_linear_134_1007" x1="433.921" y1="356.665" x2="1278.45" y2="186.74" gradientUnits="userSpaceOnUse">
<stop stop-color="#012DAC"/>
<stop offset="1" stop-color="#011A60"/>
</linearGradient>
<linearGradient id="paint7_linear_134_1007" x1="439.487" y1="384.326" x2="1284.01" y2="214.401" gradientUnits="userSpaceOnUse">
<stop stop-color="#012DAC"/>
<stop offset="1" stop-color="#011A60"/>
</linearGradient>
<linearGradient id="paint8_linear_134_1007" x1="443.81" y1="405.81" x2="1288.34" y2="235.885" gradientUnits="userSpaceOnUse">
<stop stop-color="#012DAC"/>
<stop offset="1" stop-color="#011A60"/>
</linearGradient>
<linearGradient id="paint9_linear_134_1007" x1="449.045" y1="431.827" x2="1293.57" y2="261.903" gradientUnits="userSpaceOnUse">
<stop stop-color="#012DAC"/>
<stop offset="1" stop-color="#011A60"/>
</linearGradient>
<linearGradient id="paint10_linear_134_1007" x1="453.946" y1="456.193" x2="1298.47" y2="286.267" gradientUnits="userSpaceOnUse">
<stop stop-color="#012DAC"/>
<stop offset="1" stop-color="#011A60"/>
</linearGradient>
<linearGradient id="paint11_linear_134_1007" x1="458.5" y1="478.821" x2="1303.03" y2="308.896" gradientUnits="userSpaceOnUse">
<stop stop-color="#012DAC"/>
<stop offset="1" stop-color="#011A60"/>
</linearGradient>
</defs>
</svg>
